<svg width="148" height="176" viewBox="0 0 148 176" fill="none" xmlns="http://www.w3.org/2000/svg">
<path fill-rule="evenodd" clip-rule="evenodd" d="M69.259 49.1799L51.8642 32.427C49.8193 30.4576 49.8003 27.283 51.8534 25.3057C53.8922 23.3421 57.2009 23.345 59.2476 25.3161L69.259 34.9581V5.04403C69.259 2.25829 71.5764 0 74.4799 0C77.3632 0 79.7007 2.22797 79.7007 5.04403V35.1189L89.8791 25.3161C91.924 23.3467 95.2203 23.3284 97.2733 25.3057C99.3122 27.2693 99.3092 30.4559 97.2625 32.427L79.7007 49.3408V125.666L97.3199 142.635C99.3666 144.606 99.3696 147.793 97.3307 149.757C95.2776 151.734 91.9814 151.716 89.9365 149.746L79.7007 139.888V170.104C79.7007 172.89 77.3833 175.148 74.4799 175.148C71.5965 175.148 69.259 172.92 69.259 170.104V139.908L59.0439 149.746C56.9972 151.717 53.6885 151.72 51.6497 149.757C49.5966 147.779 49.6156 144.605 51.6605 142.635L69.259 125.686V49.1799Z" fill="white"/>
<path fill-rule="evenodd" clip-rule="evenodd" d="M109.639 101.919L132.733 95.2179C135.448 94.4301 138.192 96.0009 138.874 98.7692C139.55 101.518 137.901 104.385 135.183 105.173L121.892 109.03L145.454 124.13C147.854 125.523 148.646 128.661 147.201 131.178C145.765 133.677 142.682 134.589 140.256 133.181L116.555 118L119.933 131.724C120.612 134.481 118.987 137.348 116.261 138.139C113.554 138.924 110.811 137.328 110.131 134.569L104.302 110.889L38.5444 72.7265L15.1531 79.5141C12.4359 80.3026 9.68907 78.7119 9.01237 75.9628C8.33096 73.1946 9.98782 70.3466 12.7026 69.5589L26.2917 65.6156L2.46968 50.3646C0.0696311 48.9717 -0.722293 45.8339 0.723214 43.3172C2.15871 40.8179 5.24191 39.9059 7.66808 41.3139L31.4729 56.555L28.0825 42.7815C27.4032 40.0219 29.0479 37.1526 31.7547 36.3671C34.4804 35.5762 37.206 37.18 37.8847 39.9372L43.7257 63.6659L109.639 101.919Z" fill="white"/>
<path fill-rule="evenodd" clip-rule="evenodd" d="M43.4864 111.047L37.713 134.501C37.0344 137.258 34.3088 138.862 31.5831 138.071C28.8763 137.286 27.2316 134.416 27.9108 131.657L31.2337 118.158L7.67158 133.258C5.27153 134.651 2.17221 133.772 0.726707 131.255C-0.708792 128.756 0.0470054 125.616 2.47317 124.208L26.1738 109.027L12.6609 105.106C9.94614 104.318 8.28927 101.47 8.97069 98.7018C9.64739 95.9528 12.3943 94.3621 15.1114 95.1506L38.4266 101.916L104.185 63.7533L110.032 39.9967C110.712 37.2371 113.456 35.6412 116.162 36.4266C118.888 37.2176 120.513 40.0839 119.835 42.841L116.437 56.6423L140.259 41.3913C142.659 39.9984 145.759 40.8779 147.204 43.3947C148.64 45.8939 147.884 49.034 145.458 50.442L121.653 65.6831L135.215 69.6184C137.932 70.4068 139.581 73.2733 138.905 76.0223C138.223 78.7906 135.479 80.3614 132.764 79.5736L109.4 72.794L43.4864 111.047Z" fill="white"/>
</svg>
